<svg xmlns="http://www.w3.org/2000/svg" viewBox="0 0 512 512">
  <defs>
    <linearGradient id="grad1" x1="0%" y1="0%" x2="100%" y2="100%">
      <stop offset="0%" style="stop-color:#FF6B6B;stop-opacity:1" />
      <stop offset="100%" style="stop-color:#4ECDC4;stop-opacity:1" />
    </linearGradient>
  </defs>
  <rect width="512" height="512" rx="100" fill="url(#grad1)" />
  <path d="M256 96C256 96 352 192 352 288C352 341.019 309.019 384 256 384C202.981 384 160 341.019 160 288C160 192 256 96 256 96Z" fill="white" />
  <path d="M256 144C256 144 320 224 320 288C320 323.346 291.346 352 256 352C220.654 352 192 323.346 192 288C192 224 256 144 256 144Z" fill="url(#grad1)" opacity="0.3" />
  <path d="M256 384C256 384 220 340 220 300C220 280 236 260 256 260C276 260 292 280 292 300C292 340 256 384 256 384Z" fill="#FFE66D" />
</svg>